{"accessors":[{"bufferView":2,"componentType":5126,"count":2148,"max":[1.0810790061950684,0.08030000329017639,2.9869000911712646],"min":[0.6130290031433105,-0.3378709852695465,2.795569896697998],"type":"VEC3"},{"bufferView":2,"byteOffset":25776,"componentType":5126,"count":2148,"max":[0.9906780123710632,1,0.9994443655014038],"min":[-0.9999476671218872,-0.9998073577880859,-0.9994445443153381],"type":"VEC3"},{"bufferView":3,"componentType":5126,"count":2148,"max":[0.8478337526321411,0.9999992847442627,0.8972623348236084,1],"min":[-0.9999699592590332,-0.9999146461486816,-0.9996458292007446,1],"type":"VEC4"},{"bufferView":1,"componentType":5126,"count":2148,"max":[0.9884999990463257,-0.014700000174343586],"min":[0.28769999742507935,-0.987500011920929],"type":"VEC2"},{"bufferView":0,"componentType":5125,"count":4002,"type":"SCALAR"},{"bufferView":2,"byteOffset":51552,"componentType":5126,"count":2349,"max":[0.6911939978599548,0.3039020001888275,2.957720994949341],"min":[0.45585399866104126,-1.356037974357605,2.7526609897613525],"type":"VEC3"},{"bufferView":2,"byteOffset":79740,"componentType":5126,"count":2349,"max":[1,1,1],"min":[-1,-1,-1],"type":"VEC3"},{"bufferView":3,"byteOffset":34368,"componentType":5126,"count":2349,"max":[1,1,1,1],"min":[-1,-1,-1,-1],"type":"VEC4"},{"bufferView":1,"byteOffset":17184,"componentType":5126,"count":2349,"max":[0.9958000183105469,-0.004900000058114529],"min":[0.003700000001117587,-0.9968000054359436],"type":"VEC2"},{"bufferView":0,"byteOffset":16008,"componentType":5125,"count":4881,"type":"SCALAR"},{"bufferView":2,"byteOffset":107928,"componentType":5126,"count":4018,"max":[1.4617199897766113,3.0437800884246826,0.9706500172615051],"min":[0.9617199897766113,-3.126430034637451,-0.01573999971151352],"type":"VEC3"},{"bufferView":2,"byteOffset":156144,"componentType":5126,"count":4018,"max":[1,0.9999123215675354,1],"min":[-1,-0.9998710751533508,-1],"type":"VEC3"},{"bufferView":3,"byteOffset":71952,"componentType":5126,"count":4018,"max":[1,0.9999223947525024,1,1],"min":[-1,-0.9999853372573853,-1,-1],"type":"VEC4"},{"bufferView":1,"byteOffset":35976,"componentType":5126,"count":4018,"max":[0.9984999895095825,5.006100177764893],"min":[0.002400000113993883,-8.001700401306152],"type":"VEC2"},{"bufferView":0,"byteOffset":35532,"componentType":5125,"count":12420,"type":"SCALAR"},{"bufferView":2,"byteOffset":204360,"componentType":5126,"count":348,"max":[1.264299988746643,-3.291840076446533,1.4742100238800049],"min":[-1.2345600128173828,-3.346169948577881,1.3666199445724487],"type":"VEC3"},{"bufferView":2,"byteOffset":208536,"componentType":5126,"count":348,"max":[0.9944891333580017,0.2682390809059143,0.9794822931289673],"min":[-0.9943943619728088,-1,-0.9798832535743713],"type":"VEC3"},{"bufferView":3,"byteOffset":136240,"componentType":5126,"count":348,"max":[0.9999910593032837,1,0.41722315549850464,1],"min":[-0.9798833727836609,-1,-1,-1],"type":"VEC4"},{"bufferView":1,"byteOffset":68120,"componentType":5126,"count":348,"max":[0.5997999906539917,-0.4009999930858612],"min":[0.40070000290870667,-0.5995000004768372],"type":"VEC2"},{"bufferView":0,"byteOffset":85212,"componentType":5125,"count":1728,"type":"SCALAR"},{"bufferView":2,"byteOffset":212712,"componentType":5126,"count":24,"max":[0.15557000041007996,-1.2951200008392334,2.1231799125671387],"min":[-1.3157199621200562,-2.4826600551605225,1.8984899520874023],"type":"VEC3"},{"bufferView":2,"byteOffset":213000,"componentType":5126,"count":24,"max":[0,0,1],"min":[-1,-0.6066511273384094,0],"type":"VEC3"},{"bufferView":3,"byteOffset":141808,"componentType":5126,"count":24,"max":[0,-0.79496830701828,0,1],"min":[0,-1,-0.6066511273384094,1],"type":"VEC4"},{"bufferView":1,"byteOffset":70904,"componentType":5126,"count":24,"max":[5.861299991607666,3.640000104904175],"min":[-4.894000053405762,-4.993199825286865],"type":"VEC2"},{"bufferView":0,"byteOffset":92124,"componentType":5125,"count":54,"type":"SCALAR"},{"bufferView":2,"byteOffset":213288,"componentType":5126,"count":4100,"max":[-0.9617199897766113,3.0437800884246826,0.9706500172615051],"min":[-1.4617700576782227,-3.126430034637451,-0.01573999971151352],"type":"VEC3"},{"bufferView":2,"byteOffset":262488,"componentType":5126,"count":4100,"max":[1,0.9999123215675354,1],"min":[-1,-0.9998710751533508,-1],"type":"VEC3"},{"bufferView":3,"byteOffset":142192,"componentType":5126,"count":4100,"max":[1,0.9999223947525024,1,1],"min":[-1,-0.9999853372573853,-1,-1],"type":"VEC4"},{"bufferView":1,"byteOffset":71096,"componentType":5126,"count":4100,"max":[0.9984999895095825,5.429800033569336],"min":[0.002400000113993883,-8.001700401306152],"type":"VEC2"},{"bufferView":0,"byteOffset":92340,"componentType":5125,"count":12690,"type":"SCALAR"},{"bufferView":2,"byteOffset":311688,"componentType":5126,"count":100,"max":[1.2606500387191772,-3.325589895248413,1.4701600074768066],"min":[-1.2309600114822388,-3.3519198894500732,1.3706599473953247],"type":"VEC3"},{"bufferView":2,"byteOffset":312888,"componentType":5126,"count":100,"max":[0.40588536858558655,-0.9135860204696655,0.4023744761943817],"min":[-0.40262365341186523,-1,-0.4066455364227295],"type":"VEC3"},{"bufferView":3,"byteOffset":207792,"componentType":5126,"count":100,"max":[1,0.40588536858558655,0.0284673273563385,1],"min":[0.9139240980148315,-0.4026236832141876,-0.027892500162124634,1],"type":"VEC4"},{"bufferView":1,"byteOffset":103896,"componentType":5126,"count":100,"max":[0.4927999973297119,-0.01119999960064888],"min":[0.00930000003427267,-0.491100013256073],"type":"VEC2"},{"bufferView":0,"byteOffset":143100,"componentType":5125,"count":384,"type":"SCALAR"},{"bufferView":2,"byteOffset":314088,"componentType":5126,"count":12505,"max":[1.153414011001587,0.2002599984407425,2.946830987930298],"min":[0.29168400168418884,-0.6954060196876526,2.2319209575653076],"type":"VEC3"},{"bufferView":2,"byteOffset":464148,"componentType":5126,"count":12505,"max":[1,1,1],"min":[-1,-1,-1],"type":"VEC3"},{"bufferView":3,"byteOffset":209392,"componentType":5126,"count":12505,"max":[1,1,1,1],"min":[-1,-1,-1,-1],"type":"VEC4"},{"bufferView":1,"byteOffset":104696,"componentType":5126,"count":12505,"max":[0.9984999895095825,-0.002899999963119626],"min":[0.001500000013038516,-0.9973000288009644],"type":"VEC2"},{"bufferView":0,"byteOffset":144636,"componentType":5125,"count":27693,"type":"SCALAR"},{"bufferView":2,"byteOffset":614208,"componentType":5126,"count":16,"max":[0.7802519798278809,-0.6347299814224243,2.8380300998687744],"min":[0.43323200941085815,-0.6511399745941162,2.6628799438476562],"type":"VEC3"},{"bufferView":2,"byteOffset":614400,"componentType":5126,"count":16,"max":[0.005725530907511711,-0.999374508857727,-0.019073475152254105],"min":[-0.012720256112515926,-0.9997910857200623,-0.0353647917509079],"type":"VEC3"},{"bufferView":3,"byteOffset":409472,"componentType":5126,"count":16,"max":[1,0.005767264869064093,0.0032456328626722097,1],"min":[0.9998030662536621,-0.012425810098648071,-0.01547726895660162,1],"type":"VEC4"},{"bufferView":1,"byteOffset":204736,"componentType":5126,"count":16,"max":[0.8932999968528748,-0.16290000081062317],"min":[0.050999999046325684,-1.017300009727478],"type":"VEC2"},{"bufferView":0,"byteOffset":255408,"componentType":5125,"count":36,"type":"SCALAR"},{"bufferView":2,"byteOffset":614592,"componentType":5126,"count":15911,"max":[-0.3939859867095947,3.325155019760132,3.2516679763793945],"min":[-0.7086459994316101,0.690168023109436,1.5988940000534058],"type":"VEC3"},{"bufferView":2,"byteOffset":805524,"componentType":5126,"count":15911,"max":[1,0.9999994039535522,0.9999832510948181],"min":[-1,-0.9937496185302734,-0.9998669624328613],"type":"VEC3"},{"bufferView":3,"byteOffset":409728,"componentType":5126,"count":15911,"max":[1,1,0.9973599910736084,1],"min":[-1,-0.999428927898407,-0.9999669790267944,-1],"type":"VEC4"},{"bufferView":1,"byteOffset":204864,"componentType":5126,"count":15911,"max":[0.9968000054359436,-0.003700000001117587],"min":[0.003700000001117587,-0.9976000189781189],"type":"VEC2"},{"bufferView":0,"byteOffset":255552,"componentType":5125,"count":53181,"type":"SCALAR"},{"bufferView":2,"byteOffset":996456,"componentType":5126,"count":15914,"max":[0.7085930109024048,3.325155019760132,3.2516679763793945],"min":[0.3939329981803894,0.690168023109436,1.5988949537277222],"type":"VEC3"},{"bufferView":2,"byteOffset":1187424,"componentType":5126,"count":15914,"max":[1,0.9999994039535522,0.999984085559845],"min":[-1,-0.9937468767166138,-0.9998663663864136],"type":"VEC3"},{"bufferView":3,"byteOffset":664304,"componentType":5126,"count":15914,"max":[1,1,0.9973595142364502,1],"min":[-1,-0.9994251132011414,-0.9999656677246094,-1],"type":"VEC4"},{"bufferView":1,"byteOffset":332152,"componentType":5126,"count":15914,"max":[0.9968000054359436,-0.003700000001117587],"min":[0.003700000001117587,-0.9976000189781189],"type":"VEC2"},{"bufferView":0,"byteOffset":468276,"componentType":5125,"count":53181,"type":"SCALAR"},{"bufferView":2,"byteOffset":1378392,"componentType":5126,"count":15916,"max":[-0.7306789755821228,3.325155019760132,3.251668930053711],"min":[-1.0453389883041382,0.690168023109436,1.5988960266113281],"type":"VEC3"},{"bufferView":2,"byteOffset":1569384,"componentType":5126,"count":15916,"max":[1,0.9999994039535522,0.9999843835830688],"min":[-1,-0.9937467575073242,-0.9998663067817688],"type":"VEC3"},{"bufferView":3,"byteOffset":918928,"componentType":5126,"count":15916,"max":[1,1,0.9973597526550293,1],"min":[-1,-0.999424159526825,-0.9999646544456482,-1],"type":"VEC4"},{"bufferView":1,"byteOffset":459464,"componentType":5126,"count":15916,"max":[0.9968000054359436,-0.003700000001117587],"min":[0.003700000001117587,-0.9976000189781189],"type":"VEC2"},{"bufferView":0,"byteOffset":681000,"componentType":5125,"count":53181,"type":"SCALAR"},{"bufferView":2,"byteOffset":1760376,"componentType":5126,"count":15908,"max":[1.0452840328216553,3.3251490592956543,3.251662015914917],"min":[0.7306240200996399,0.6901630163192749,1.5988880395889282],"type":"VEC3"},{"bufferView":2,"byteOffset":1951272,"componentType":5126,"count":15908,"max":[1,0.9999994039535522,0.9999832510948181],"min":[-1,-0.9937523603439331,-0.9998670220375061],"type":"VEC3"},{"bufferView":3,"byteOffset":1173584,"componentType":5126,"count":15908,"max":[1,1,0.9973582625389099,1],"min":[-1,-0.9994231462478638,-0.9999669790267944,-1],"type":"VEC4"},{"bufferView":1,"byteOffset":586792,"componentType":5126,"count":15908,"max":[0.9968000054359436,-0.003700000001117587],"min":[0.003700000001117587,-0.9976000189781189],"type":"VEC2"},{"bufferView":0,"byteOffset":893724,"componentType":5125,"count":53181,"type":"SCALAR"},{"bufferView":2,"byteOffset":2142168,"componentType":5126,"count":857,"max":[1.322849988937378,0.015410000458359718,4.125790119171143],"min":[-1.3336199522018433,-2.1642699241638184,2.215679883956909],"type":"VEC3"},{"bufferView":2,"byteOffset":2152452,"componentType":5126,"count":857,"max":[0.9999931454658508,1,1],"min":[-0.9999929070472717,-1,-1],"type":"VEC3"},{"bufferView":3,"byteOffset":1428112,"componentType":5126,"count":857,"max":[1,0.9999977350234985,0.9918698668479919,1],"min":[-1,-0.9999988675117493,-1,-1],"type":"VEC4"},{"bufferView":1,"byteOffset":714056,"componentType":5126,"count":857,"max":[0.9746000170707703,-0.022700000554323196],"min":[0.07199999690055847,-0.9384999871253967],"type":"VEC2"},{"bufferView":0,"byteOffset":1106448,"componentType":5125,"count":3012,"type":"SCALAR"},{"bufferView":2,"byteOffset":2162736,"componentType":5126,"count":1172,"max":[0.9414539933204651,1.358314037322998,3.2537829875946045],"min":[-0.9415090084075928,0.688289999961853,2.8132050037384033],"type":"VEC3"},{"bufferView":2,"byteOffset":2176800,"componentType":5126,"count":1172,"max":[0.9597251415252686,0.3610149919986725,0.9993418455123901],"min":[-0.9594886302947998,-0.9988979697227478,-0.6836007833480835],"type":"VEC3"},{"bufferView":1,"byteOffset":720912,"componentType":5126,"count":1172,"max":[2.936300039291382,-0.06499999761581421],"min":[2.065000057220459,-0.9352999925613403],"type":"VEC2"},{"bufferView":0,"byteOffset":1118496,"componentType":5125,"count":4992,"type":"SCALAR"},{"bufferView":2,"byteOffset":2190864,"componentType":5126,"count":4168,"max":[1.0911589860916138,0.08521000295877457,2.992039918899536],"min":[0.6976990103721619,-0.34707099199295044,2.8089699745178223],"type":"VEC3"},{"bufferView":2,"byteOffset":2240880,"componentType":5126,"count":4168,"max":[1,1,1],"min":[-1,-1,-1],"type":"VEC3"},{"bufferView":3,"byteOffset":1441824,"componentType":5126,"count":4168,"max":[1,1,1,1],"min":[-1,-1,-1,-1],"type":"VEC4"},{"bufferView":1,"byteOffset":730288,"componentType":5126,"count":4168,"max":[0.9940999746322632,-0.01510000042617321],"min":[0.17800000309944153,-0.9973000288009644],"type":"VEC2"},{"bufferView":0,"byteOffset":1138464,"componentType":5125,"count":8892,"type":"SCALAR"},{"bufferView":2,"byteOffset":2290896,"componentType":5126,"count":12094,"max":[0.8164610266685486,0.23902000486850739,2.899868965148926],"min":[0.4149619936943054,-0.712369978427887,2.4240291118621826],"type":"VEC3"},{"bufferView":2,"byteOffset":2436024,"componentType":5126,"count":12094,"max":[1,1,1],"min":[-1,-1,-1],"type":"VEC3"},{"bufferView":3,"byteOffset":1508512,"componentType":5126,"count":12094,"max":[1,1,1,1],"min":[-1,-1,-1,-1],"type":"VEC4"},{"bufferView":1,"byteOffset":763632,"componentType":5126,"count":12094,"max":[1.777999997138977,-0.0031999999191612005],"min":[0.001500000013038516,-0.9973000288009644],"type":"VEC2"},{"bufferView":0,"byteOffset":1174032,"componentType":5125,"count":28329,"type":"SCALAR"},{"bufferView":2,"byteOffset":2581152,"componentType":5126,"count":9028,"max":[1.3109049797058105,2.482964038848877,0.9150630235671997],"min":[-1.4472049474716187,-3.070939064025879,0.27261799573898315],"type":"VEC3"},{"bufferView":2,"byteOffset":2689488,"componentType":5126,"count":9028,"max":[1,1,1],"min":[-1,-1,-1],"type":"VEC3"},{"bufferView":3,"byteOffset":1702016,"componentType":5126,"count":9028,"max":[1,1,1,1],"min":[-1,-1,-1,-1],"type":"VEC4"},{"bufferView":1,"byteOffset":860384,"componentType":5126,"count":9028,"max":[0.9977999925613403,-0.004600000102072954],"min":[0.000699999975040555,-0.9994999766349792],"type":"VEC2"},{"bufferView":0,"byteOffset":1287348,"componentType":5125,"count":22527,"type":"SCALAR"},{"bufferView":2,"byteOffset":2797824,"componentType":5126,"count":10952,"max":[-1.0694249868392944,2.9882280826568604,0.8432040214538574],"min":[-1.3540250062942505,-0.8614779710769653,0.03996099904179573],"type":"VEC3"},{"bufferView":2,"byteOffset":2929248,"componentType":5126,"count":10952,"max":[1,1,1],"min":[-1,-1,-1],"type":"VEC3"},{"bufferView":3,"byteOffset":1846464,"componentType":5126,"count":10952,"max":[1,1,1,1],"min":[-1,-1,-1,-1],"type":"VEC4"},{"bufferView":1,"byteOffset":932608,"componentType":5126,"count":10952,"max":[0.9977999925613403,-0.004399999976158142],"min":[0.04320000112056732,-0.9994999766349792],"type":"VEC2"},{"bufferView":0,"byteOffset":1377456,"componentType":5125,"count":27126,"type":"SCALAR"},{"bufferView":2,"byteOffset":3060672,"componentType":5126,"count":8203,"max":[1.4471349716186523,-0.9287559986114502,0.9150630235671997],"min":[-1.3540250062942505,-3.070939064025879,0.03996200114488602],"type":"VEC3"},{"bufferView":2,"byteOffset":3159108,"componentType":5126,"count":8203,"max":[1,1,1],"min":[-1,-1,-1],"type":"VEC3"},{"bufferView":3,"byteOffset":2021696,"componentType":5126,"count":8203,"max":[1,1,1,1],"min":[-1,-1,-1,-1],"type":"VEC4"},{"bufferView":1,"byteOffset":1020224,"componentType":5126,"count":8203,"max":[0.9977999925613403,-0.004600000102072954],"min":[0.000699999975040555,-0.9994999766349792],"type":"VEC2"},{"bufferView":0,"byteOffset":1485960,"componentType":5125,"count":20349,"type":"SCALAR"},{"bufferView":2,"byteOffset":3257544,"componentType":5126,"count":10952,"max":[1.3540459871292114,2.9882280826568604,0.8432049751281738],"min":[1.0694459676742554,-0.7630929946899414,0.03996200114488602],"type":"VEC3"},{"bufferView":2,"byteOffset":3388968,"componentType":5126,"count":10952,"max":[1,1,1],"min":[-1,-1,-1],"type":"VEC3"},{"bufferView":3,"byteOffset":2152944,"componentType":5126,"count":10952,"max":[1,1,1,1],"min":[-1,-1,-1,-1],"type":"VEC4"},{"bufferView":1,"byteOffset":1085848,"componentType":5126,"count":10952,"max":[0.9977999925613403,-0.004399999976158142],"min":[0.04320000112056732,-0.9994999766349792],"type":"VEC2"},{"bufferView":0,"byteOffset":1567356,"componentType":5125,"count":27126,"type":"SCALAR"},{"bufferView":2,"byteOffset":3520392,"componentType":5126,"count":11280,"max":[1.5153130292892456,3.379812002182007,2.1994330883026123],"min":[-1.5153130292892456,-3.3357489109039307,0.03996099904179573],"type":"VEC3"},{"bufferView":2,"byteOffset":3655752,"componentType":5126,"count":11280,"max":[1,1,1],"min":[-1,-1,-1],"type":"VEC3"},{"bufferView":3,"byteOffset":2328176,"componentType":5126,"count":11280,"max":[1,1,1,1],"min":[-1,-1,-1,-1],"type":"VEC4"},{"bufferView":1,"byteOffset":1173464,"componentType":5126,"count":11280,"max":[0.9994999766349792,-0.0012000000569969416],"min":[0.000699999975040555,-0.9994999766349792],"type":"VEC2"},{"bufferView":0,"byteOffset":1675860,"componentType":5125,"count":26454,"type":"SCALAR"},{"bufferView":2,"byteOffset":3791112,"componentType":5126,"count":870,"max":[1.5153130292892456,-1.0095410346984863,1.1061500310897827],"min":[1.3855030536651611,-3.256722927093506,0.6882699728012085],"type":"VEC3"},{"bufferView":2,"byteOffset":3801552,"componentType":5126,"count":870,"max":[1,1,1],"min":[-1,-1,-1],"type":"VEC3"},{"bufferView":3,"byteOffset":2508656,"componentType":5126,"count":870,"max":[1,1,1,1],"min":[-1,-1,-1,-1],"type":"VEC4"},{"bufferView":1,"byteOffset":1263704,"componentType":5126,"count":870,"max":[0.9976000189781189,-0.0012000000569969416],"min":[0.05490000173449516,-0.9993000030517578],"type":"VEC2"},{"bufferView":0,"byteOffset":1781676,"componentType":5125,"count":1764,"type":"SCALAR"},{"bufferView":2,"byteOffset":3811992,"componentType":5126,"count":35762,"max":[1.4589899778366089,3.3841099739074707,2.388309955596924],"min":[-1.5003399848937988,-3.4080300331115723,0.31207001209259033],"type":"VEC3"},{"bufferView":2,"byteOffset":4241136,"componentType":5126,"count":35762,"max":[1,1,1],"min":[-1,-1,-1],"type":"VEC3"},{"bufferView":3,"byteOffset":2522576,"componentType":5126,"count":35762,"max":[1,1,1,1],"min":[-1,-1,-1,-1],"type":"VEC4"},{"bufferView":1,"byteOffset":1270664,"componentType":5126,"count":35762,"max":[0.9994999766349792,-0.0012000000569969416],"min":[0.000699999975040555,-0.9994999766349792],"type":"VEC2"},{"bufferView":0,"byteOffset":1788732,"componentType":5125,"count":51684,"type":"SCALAR"},{"bufferView":2,"byteOffset":4670280,"componentType":5126,"count":44978,"max":[1.509310007095337,3.43969988822937,2.388309955596924],"min":[-1.5072300434112549,-3.4080300331115723,0.30651000142097473],"type":"VEC3"},{"bufferView":2,"byteOffset":5210016,"componentType":5126,"count":44978,"max":[1,1,1],"min":[-1,-1,-1],"type":"VEC3"},{"bufferView":3,"byteOffset":3094768,"componentType":5126,"count":44978,"max":[1,1,1,1],"min":[-1,-1,-1,-1],"type":"VEC4"},{"bufferView":1,"byteOffset":1556760,"componentType":5126,"count":44978,"max":[0.9994999766349792,-0.0012000000569969416],"min":[0.000699999975040555,-0.9994999766349792],"type":"VEC2"},{"bufferView":0,"byteOffset":1995468,"componentType":5125,"count":65535,"type":"SCALAR"},{"bufferView":2,"byteOffset":5749752,"componentType":5126,"count":9516,"max":[1.2734999656677246,3.329483985900879,2.3407299518585205],"min":[-1.4590569734573364,-3.3443610668182373,0.27261900901794434],"type":"VEC3"},{"bufferView":2,"byteOffset":5863944,"componentType":5126,"count":9516,"max":[1,1,1],"min":[-1,-1,-1],"type":"VEC3"},{"bufferView":3,"byteOffset":3814416,"componentType":5126,"count":9516,"max":[1,1,1,1],"min":[-1,-1,-1,-1],"type":"VEC4"},{"bufferView":1,"byteOffset":1916584,"componentType":5126,"count":9516,"max":[0.9994999766349792,-0.0012000000569969416],"min":[0.000699999975040555,-0.9994999766349792],"type":"VEC2"},{"bufferView":0,"byteOffset":2257608,"componentType":5125,"count":22545,"type":"SCALAR"},{"bufferView":2,"byteOffset":5978136,"componentType":5126,"count":44410,"max":[1.5072300434112549,3.3841099739074707,2.388309955596924],"min":[-1.5033400058746338,-3.4080300331115723,0.31207001209259033],"type":"VEC3"},{"bufferView":2,"byteOffset":6511056,"componentType":5126,"count":44410,"max":[1,1,1],"min":[-1,-1,-1],"type":"VEC3"},{"bufferView":3,"byteOffset":3966672,"componentType":5126,"count":44410,"max":[1,1,1,1],"min":[-1,-1,-1,-1],"type":"VEC4"},{"bufferView":1,"byteOffset":1992712,"componentType":5126,"count":44410,"max":[0.9994999766349792,-0.0012000000569969416],"min":[0.000699999975040555,-0.9994999766349792],"type":"VEC2"},{"bufferView":0,"byteOffset":2347788,"componentType":5125,"count":65535,"type":"SCALAR"},{"bufferView":2,"byteOffset":7043976,"componentType":5126,"count":5894,"max":[1.6658949851989746,3.448982000350952,2.6694469451904297],"min":[-1.6453659534454346,-3.4106791019439697,0.32435300946235657],"type":"VEC3"},{"bufferView":2,"byteOffset":7114704,"componentType":5126,"count":5894,"max":[1,1,1],"min":[-1,-1,-1],"type":"VEC3"},{"bufferView":3,"byteOffset":4677232,"componentType":5126,"count":5894,"max":[1,1,1,1],"min":[-1,-1,-1,-1],"type":"VEC4"},{"bufferView":1,"byteOffset":2347992,"componentType":5126,"count":5894,"max":[0.9993000030517578,-0.001500000013038516],"min":[0.009800000116229057,-0.9994999766349792],"type":"VEC2"},{"bufferView":0,"byteOffset":2609928,"componentType":5125,"count":16116,"type":"SCALAR"},{"bufferView":2,"byteOffset":7185432,"componentType":5126,"count":1368,"max":[0.7411770224571228,3.165863037109375,5.538175106048584],"min":[-0.7411900162696838,0.7268440127372742,2.74222993850708],"type":"VEC3"},{"bufferView":2,"byteOffset":7201848,"componentType":5126,"count":1368,"max":[1,1,1],"min":[-1,-1,-1],"type":"VEC3"},{"bufferView":3,"byteOffset":4771536,"componentType":5126,"count":1368,"max":[1,1,0.999735951423645,1],"min":[-1,-1,-1,-1],"type":"VEC4"},{"bufferView":1,"byteOffset":2395144,"componentType":5126,"count":1368,"max":[0.9993000030517578,-0.004900000058114529],"min":[0.0010000000474974513,-0.9983000159263611],"type":"VEC2"},{"bufferView":0,"byteOffset":2674392,"componentType":5125,"count":3096,"type":"SCALAR"},{"bufferView":2,"byteOffset":7218264,"componentType":5126,"count":19887,"max":[1.268280029296875,3.3528850078582764,2.9772019386291504],"min":[-1.2153300046920776,-0.0196749996393919,1.1360119581222534],"type":"VEC3"},{"bufferView":2,"byteOffset":7456908,"componentType":5126,"count":19887,"max":[1,1,1],"min":[-1,-1,-1],"type":"VEC3"},{"bufferView":3,"byteOffset":4793424,"componentType":5126,"count":19887,"max":[1,1,1,1],"min":[-1,-1,-1,-1],"type":"VEC4"},{"bufferView":1,"byteOffset":2406088,"componentType":5126,"count":19887,"max":[0.9987999796867371,-0.00419999985024333],"min":[0.0010000000474974513,-0.9983000159263611],"type":"VEC2"},{"bufferView":0,"byteOffset":2686776,"componentType":5125,"count":44814,"type":"SCALAR"},{"bufferView":2,"byteOffset":7695552,"componentType":5126,"count":10705,"max":[1.1878859996795654,3.3697540760040283,3.3627679347991943],"min":[-1.1841020584106445,0.49856099486351013,1.4530420303344727],"type":"VEC3"},{"bufferView":2,"byteOffset":7824012,"componentType":5126,"count":10705,"max":[1,1,1],"min":[-1,-1,-1],"type":"VEC3"},{"bufferView":3,"byteOffset":5111616,"componentType":5126,"count":10705,"max":[1,1,1,1],"min":[-1,-1,-1,-1],"type":"VEC4"},{"bufferView":1,"byteOffset":2565184,"componentType":5126,"count":10705,"max":[0.9990000128746033,-0.004399999976158142],"min":[0.0010000000474974513,-0.9983000159263611],"type":"VEC2"},{"bufferView":0,"byteOffset":2866032,"componentType":5125,"count":24738,"type":"SCALAR"},{"bufferView":2,"byteOffset":7952472,"componentType":5126,"count":1584,"max":[1.1350430250167847,0.9601230025291443,3.151106119155884],"min":[-1.135045051574707,0.31537699699401855,2.68376088142395],"type":"VEC3"},{"bufferView":2,"byteOffset":7971480,"componentType":5126,"count":1584,"max":[1,0.9999998807907104,0.9999116063117981],"min":[-1,-0.9999992847442627,-0.9999232292175293],"type":"VEC3"},{"bufferView":3,"byteOffset":5282896,"componentType":5126,"count":1584,"max":[1,0.996075451374054,0.9999999403953552,1],"min":[-1,-0.9916656613349915,-0.9999998807907104,-1],"type":"VEC4"},{"bufferView":1,"byteOffset":2650824,"componentType":5126,"count":1584,"max":[0.9990000128746033,-0.00930000003427267],"min":[0.0010000000474974513,-0.9983000159263611],"type":"VEC2"},{"bufferView":0,"byteOffset":2964984,"componentType":5125,"count":3624,"type":"SCALAR"},{"bufferView":2,"byteOffset":7990488,"componentType":5126,"count":6068,"max":[0.1498820036649704,2.4828720092773438,4.266148090362549],"min":[-0.10302799940109253,2.0174720287323,2.891197919845581],"type":"VEC3"},{"bufferView":2,"byteOffset":8063304,"componentType":5126,"count":6068,"max":[1,1,0.9999995827674866],"min":[-1,-1,-0.9999770522117615],"type":"VEC3"},{"bufferView":3,"byteOffset":5308240,"componentType":5126,"count":6068,"max":[1,1,0.9999962449073792,1],"min":[-1,-0.9960898756980896,-1,-1],"type":"VEC4"},{"bufferView":1,"byteOffset":2663496,"componentType":5126,"count":6068,"max":[0.9702000021934509,-0.016599999740719795],"min":[0.0034000000450760126,-0.9983000159263611],"type":"VEC2"},{"bufferView":0,"byteOffset":2979480,"componentType":5125,"count":12816,"type":"SCALAR"},{"bufferView":2,"byteOffset":8136120,"componentType":5126,"count":11300,"max":[0.18340900540351868,2.629991054534912,2.9440200328826904],"min":[-0.13656100630760193,1.3290799856185913,1.4340200424194336],"type":"VEC3"},{"bufferView":2,"byteOffset":8271720,"componentType":5126,"count":11300,"max":[1,1,1],"min":[-1,-1,-1],"type":"VEC3"},{"bufferView":3,"byteOffset":5405328,"componentType":5126,"count":11300,"max":[1,1,1,1],"min":[-1,-1,-1,-1],"type":"VEC4"},{"bufferView":1,"byteOffset":2712040,"componentType":5126,"count":11300,"max":[0.9824000000953674,-0.0031999999191612005],"min":[0.0034000000450760126,-0.9983000159263611],"type":"VEC2"},{"bufferView":0,"byteOffset":3030744,"componentType":5125,"count":24000,"type":"SCALAR"},{"bufferView":2,"byteOffset":8407320,"componentType":5126,"count":6011,"max":[0.761339008808136,3.126852035522461,4.595047950744629],"min":[-0.7613809704780579,0.846750020980835,2.1859378814697266],"type":"VEC3"},{"bufferView":2,"byteOffset":8479452,"componentType":5126,"count":6011,"max":[1,1,1],"min":[-1,-1,-1],"type":"VEC3"},{"bufferView":3,"byteOffset":5586128,"componentType":5126,"count":6011,"max":[1,1,1,1],"min":[-1,-1,-1,-1],"type":"VEC4"},{"bufferView":1,"byteOffset":2802440,"componentType":5126,"count":6011,"max":[0.9878000020980835,-0.004399999976158142],"min":[0.0034000000450760126,-0.9983000159263611],"type":"VEC2"},{"bufferView":0,"byteOffset":3126744,"componentType":5125,"count":14364,"type":"SCALAR"}],"asset":{"extras":{"author":"Jeyhun1985 (https://sketchfab.com/Jeyhun1985)","license":"CC-BY-4.0 (http://creativecommons.org/licenses/by/4.0/)","source":"https://sketchfab.com/3d-models/nomads-sam-system-2f54eb14a7d649b68e196c1835f6a820","title":"NOMADS SAM system"},"generator":"Sketchfab-0.3.0","version":"2.0"},"bufferViews":[{"buffer":0,"byteLength":3184200,"name":"floatBufferViews","target":34963},{"buffer":0,"byteLength":2850528,"byteOffset":3184200,"byteStride":8,"name":"floatBufferViews","target":34962},{"buffer":0,"byteLength":8551584,"byteOffset":6034728,"byteStride":12,"name":"floatBufferViews","target":34962},{"buffer":0,"byteLength":5682304,"byteOffset":14586312,"byteStride":16,"name":"floatBufferViews","target":34962}],"buffers":[{"byteLength":20268616,"uri":"scene.bin"}],"images":[{"uri":"textures/15d9e1ed-dadb-4742-840a-4d922666d522_baseColor.webp"},{"uri":"textures/15d9e1ed-dadb-4742-840a-4d922666d522_metallicRoughness.webp"},{"uri":"textures/15d9e1ed-dadb-4742-840a-4d922666d522_normal.webp"},{"uri":"textures/18827729-513b-41a7-bec2-5a1ff044f4bf_baseColor.webp"},{"uri":"textures/18827729-513b-41a7-bec2-5a1ff044f4bf_metallicRoughness.webp"},{"uri":"textures/18827729-513b-41a7-bec2-5a1ff044f4bf_emissive.webp"},{"uri":"textures/18827729-513b-41a7-bec2-5a1ff044f4bf_normal.webp"},{"uri":"textures/575bc722-05a7-4b47-855a-61c1b11e921c_baseColor.webp"},{"uri":"textures/575bc722-05a7-4b47-855a-61c1b11e921c_metallicRoughness.webp"},{"uri":"textures/575bc722-05a7-4b47-855a-61c1b11e921c_normal.webp"},{"uri":"textures/639e0d6d-d861-41d8-b0f7-502476963190_baseColor.webp"},{"uri":"textures/639e0d6d-d861-41d8-b0f7-502476963190_metallicRoughness.webp"},{"uri":"textures/639e0d6d-d861-41d8-b0f7-502476963190_normal.webp"},{"uri":"textures/6cf181f4-0b4f-496b-82ee-f97f4b828dee_baseColor.webp"},{"uri":"textures/6cf181f4-0b4f-496b-82ee-f97f4b828dee_metallicRoughness.webp"},{"uri":"textures/6cf181f4-0b4f-496b-82ee-f97f4b828dee_normal.webp"},{"uri":"textures/7685007a-0096-4552-9b0f-fce2edf53ea7_baseColor.webp"},{"uri":"textures/7685007a-0096-4552-9b0f-fce2edf53ea7_metallicRoughness.webp"},{"uri":"textures/7685007a-0096-4552-9b0f-fce2edf53ea7_normal.webp"},{"uri":"textures/af41ed37-6eaf-4007-89ab-d78bba3839cf_baseColor.webp"},{"uri":"textures/af41ed37-6eaf-4007-89ab-d78bba3839cf_metallicRoughness.webp"},{"uri":"textures/af41ed37-6eaf-4007-89ab-d78bba3839cf_normal.webp"},{"uri":"textures/bc2cfa91-dffd-4443-90b7-2a3aab11630d_baseColor.webp"},{"uri":"textures/bc2cfa91-dffd-4443-90b7-2a3aab11630d_metallicRoughness.webp"},{"uri":"textures/bc2cfa91-dffd-4443-90b7-2a3aab11630d_normal.webp"},{"uri":"textures/deb41988-90ec-4bb0-855e-1aa57d5c03b4_baseColor.webp"},{"uri":"textures/deb41988-90ec-4bb0-855e-1aa57d5c03b4_normal.webp"},{"uri":"textures/e914d4bd-1827-4783-9965-141737099137_baseColor.webp"},{"uri":"textures/e914d4bd-1827-4783-9965-141737099137_metallicRoughness.webp"},{"uri":"textures/e914d4bd-1827-4783-9965-141737099137_normal.webp"},{"uri":"textures/ff05e26b-d70a-434f-b162-f2fc3c44bc90_baseColor.webp"},{"uri":"textures/ff05e26b-d70a-434f-b162-f2fc3c44bc90_metallicRoughness.webp"},{"uri":"textures/ff05e26b-d70a-434f-b162-f2fc3c44bc90_normal.webp"}],"materials":[{"alphaMode":"BLEND","doubleSided":true,"name":"15d9e1ed-dadb-4742-840a-4d922666d522","normalTexture":{"index":2},"occlusionTexture":{"index":1},"pbrMetallicRoughness":{"baseColorTexture":{"index":0},"metallicRoughnessTexture":{"index":1},"roughnessFactor":0.3}},{"alphaMode":"BLEND","doubleSided":true,"emissiveFactor":[0.2,0.2,0.2],"emissiveTexture":{"index":5},"name":"18827729-513b-41a7-bec2-5a1ff044f4bf","normalTexture":{"index":6},"occlusionTexture":{"index":4},"pbrMetallicRoughness":{"baseColorTexture":{"index":3},"metallicRoughnessTexture":{"index":4},"roughnessFactor":0.4}},{"doubleSided":true,"emissiveFactor":[0.2,0.2,0.2],"emissiveTexture":{"index":7},"name":"575bc722-05a7-4b47-855a-61c1b11e921c","normalTexture":{"index":9},"occlusionTexture":{"index":8},"pbrMetallicRoughness":{"baseColorTexture":{"index":7},"metallicRoughnessTexture":{"index":8},"roughnessFactor":0.4}},{"alphaMode":"BLEND","doubleSided":true,"emissiveFactor":[0.1,0.1,0.1],"name":"5b6c3142-a144-4eaf-9e48-b6c077885dd5","pbrMetallicRoughness":{"baseColorFactor":[0.584,0.584,0.584,0.4],"roughnessFactor":0.1}},{"doubleSided":true,"emissiveFactor":[0.2,0.2,0.2],"emissiveTexture":{"index":10},"name":"639e0d6d-d861-41d8-b0f7-502476963190","normalTexture":{"index":12},"occlusionTexture":{"index":11},"pbrMetallicRoughness":{"baseColorTexture":{"index":10},"metallicRoughnessTexture":{"index":11},"roughnessFactor":0.4}},{"alphaMode":"BLEND","doubleSided":true,"name":"6cf181f4-0b4f-496b-82ee-f97f4b828dee","normalTexture":{"index":15},"occlusionTexture":{"index":14},"pbrMetallicRoughness":{"baseColorTexture":{"index":13},"metallicRoughnessTexture":{"index":14},"roughnessFactor":0.5}},{"doubleSided":true,"emissiveFactor":[0.2,0.2,0.2],"emissiveTexture":{"index":16},"name":"7685007a-0096-4552-9b0f-fce2edf53ea7","normalTexture":{"index":18},"occlusionTexture":{"index":17},"pbrMetallicRoughness":{"baseColorTexture":{"index":16},"metallicRoughnessTexture":{"index":17},"roughnessFactor":0.5}},{"doubleSided":true,"name":"83fc7c2c-e0ae-4cae-903f-18f69383c28d","normalTexture":{"index":18},"occlusionTexture":{"index":17},"pbrMetallicRoughness":{"baseColorTexture":{"index":16},"metallicRoughnessTexture":{"index":17},"roughnessFactor":0.4}},{"alphaMode":"BLEND","doubleSided":true,"name":"a180c5db-5f34-407d-a68b-490435881f64","normalTexture":{"index":15},"occlusionTexture":{"index":14},"pbrMetallicRoughness":{"baseColorTexture":{"index":13},"metallicRoughnessTexture":{"index":14},"roughnessFactor":0.5}},{"doubleSided":true,"emissiveFactor":[0.2,0.2,0.2],"emissiveTexture":{"index":19},"name":"af41ed37-6eaf-4007-89ab-d78bba3839cf","normalTexture":{"index":21},"occlusionTexture":{"index":20},"pbrMetallicRoughness":{"baseColorTexture":{"index":19},"metallicRoughnessTexture":{"index":20},"roughnessFactor":0.5}},{"alphaMode":"BLEND","doubleSided":true,"name":"bc2cfa91-dffd-4443-90b7-2a3aab11630d","normalTexture":{"index":24},"occlusionTexture":{"index":23},"pbrMetallicRoughness":{"baseColorTexture":{"index":22},"metallicRoughnessTexture":{"index":23},"roughnessFactor":0.3}},{"doubleSided":true,"emissiveFactor":[0.2,0.2,0.2],"emissiveTexture":{"index":10},"name":"d66753e4-5a67-4bf6-b8aa-c806442f186a","normalTexture":{"index":12},"occlusionTexture":{"index":11},"pbrMetallicRoughness":{"baseColorTexture":{"index":10},"metallicRoughnessTexture":{"index":11},"roughnessFactor":0.5}},{"doubleSided":true,"emissiveFactor":[0.2,0.2,0.2],"emissiveTexture":{"index":19},"name":"db14ad05-a8c7-4f90-8701-33072aaa9281","normalTexture":{"index":21},"occlusionTexture":{"index":20},"pbrMetallicRoughness":{"baseColorTexture":{"index":19},"metallicRoughnessTexture":{"index":20},"roughnessFactor":0.5}},{"doubleSided":true,"name":"deb41988-90ec-4bb0-855e-1aa57d5c03b4","normalTexture":{"index":26},"occlusionTexture":{"index":23},"pbrMetallicRoughness":{"baseColorTexture":{"index":25},"metallicRoughnessTexture":{"index":23},"roughnessFactor":0.4}},{"alphaMode":"BLEND","doubleSided":true,"name":"e914d4bd-1827-4783-9965-141737099137","normalTexture":{"index":29},"occlusionTexture":{"index":28},"pbrMetallicRoughness":{"baseColorTexture":{"index":27},"metallicRoughnessTexture":{"index":28},"roughnessFactor":0.4}},{"alphaMode":"BLEND","doubleSided":true,"emissiveFactor":[0.1,0.1,0.1],"name":"ff05e26b-d70a-434f-b162-f2fc3c44bc90","normalTexture":{"index":32},"pbrMetallicRoughness":{"baseColorTexture":{"index":30},"metallicRoughnessTexture":{"index":31},"roughnessFactor":0.1}}],"meshes":[{"name":"Object_0","primitives":[{"attributes":{"NORMAL":1,"POSITION":0,"TANGENT":2,"TEXCOORD_0":3},"indices":4,"material":0,"mode":4}]},{"name":"Object_1","primitives":[{"attributes":{"NORMAL":6,"POSITION":5,"TANGENT":7,"TEXCOORD_0":8},"indices":9,"material":1,"mode":4}]},{"name":"Object_2","primitives":[{"attributes":{"NORMAL":11,"POSITION":10,"TANGENT":12,"TEXCOORD_0":13},"indices":14,"material":5,"mode":4}]},{"name":"Object_3","primitives":[{"attributes":{"NORMAL":16,"POSITION":15,"TANGENT":17,"TEXCOORD_0":18},"indices":19,"material":13,"mode":4}]},{"name":"Object_4","primitives":[{"attributes":{"NORMAL":21,"POSITION":20,"TANGENT":22,"TEXCOORD_0":23},"indices":24,"material":14,"mode":4}]},{"name":"Object_5","primitives":[{"attributes":{"NORMAL":26,"POSITION":25,"TANGENT":27,"TEXCOORD_0":28},"indices":29,"material":8,"mode":4}]},{"name":"Object_6","primitives":[{"attributes":{"NORMAL":31,"POSITION":30,"TANGENT":32,"TEXCOORD_0":33},"indices":34,"material":10,"mode":4}]},{"name":"Object_7","primitives":[{"attributes":{"NORMAL":36,"POSITION":35,"TANGENT":37,"TEXCOORD_0":38},"indices":39,"material":11,"mode":4}]},{"name":"Object_8","primitives":[{"attributes":{"NORMAL":41,"POSITION":40,"TANGENT":42,"TEXCOORD_0":43},"indices":44,"material":15,"mode":4}]},{"name":"Object_9","primitives":[{"attributes":{"NORMAL":46,"POSITION":45,"TANGENT":47,"TEXCOORD_0":48},"indices":49,"material":2,"mode":4}]},{"name":"Object_10","primitives":[{"attributes":{"NORMAL":51,"POSITION":50,"TANGENT":52,"TEXCOORD_0":53},"indices":54,"material":2,"mode":4}]},{"name":"Object_11","primitives":[{"attributes":{"NORMAL":56,"POSITION":55,"TANGENT":57,"TEXCOORD_0":58},"indices":59,"material":2,"mode":4}]},{"name":"Object_12","primitives":[{"attributes":{"NORMAL":61,"POSITION":60,"TANGENT":62,"TEXCOORD_0":63},"indices":64,"material":2,"mode":4}]},{"name":"Object_13","primitives":[{"attributes":{"NORMAL":66,"POSITION":65,"TANGENT":67,"TEXCOORD_0":68},"indices":69,"material":7,"mode":4}]},{"name":"Object_14","primitives":[{"attributes":{"NORMAL":71,"POSITION":70,"TEXCOORD_0":72},"indices":73,"material":3,"mode":4}]},{"name":"Object_15","primitives":[{"attributes":{"NORMAL":75,"POSITION":74,"TANGENT":76,"TEXCOORD_0":77},"indices":78,"material":4,"mode":4}]},{"name":"Object_16","primitives":[{"attributes":{"NORMAL":80,"POSITION":79,"TANGENT":81,"TEXCOORD_0":82},"indices":83,"material":4,"mode":4}]},{"name":"Object_17","primitives":[{"attributes":{"NORMAL":85,"POSITION":84,"TANGENT":86,"TEXCOORD_0":87},"indices":88,"material":6,"mode":4}]},{"name":"Object_18","primitives":[{"attributes":{"NORMAL":90,"POSITION":89,"TANGENT":91,"TEXCOORD_0":92},"indices":93,"material":6,"mode":4}]},{"name":"Object_19","primitives":[{"attributes":{"NORMAL":95,"POSITION":94,"TANGENT":96,"TEXCOORD_0":97},"indices":98,"material":6,"mode":4}]},{"name":"Object_20","primitives":[{"attributes":{"NORMAL":100,"POSITION":99,"TANGENT":101,"TEXCOORD_0":102},"indices":103,"material":6,"mode":4}]},{"name":"Object_21","primitives":[{"attributes":{"NORMAL":105,"POSITION":104,"TANGENT":106,"TEXCOORD_0":107},"indices":108,"material":6,"mode":4}]},{"name":"Object_22","primitives":[{"attributes":{"NORMAL":110,"POSITION":109,"TANGENT":111,"TEXCOORD_0":112},"indices":113,"material":6,"mode":4}]},{"name":"Object_23","primitives":[{"attributes":{"NORMAL":115,"POSITION":114,"TANGENT":116,"TEXCOORD_0":117},"indices":118,"material":6,"mode":4}]},{"name":"Object_24","primitives":[{"attributes":{"NORMAL":120,"POSITION":119,"TANGENT":121,"TEXCOORD_0":122},"indices":123,"material":6,"mode":4}]},{"name":"Object_25","primitives":[{"attributes":{"NORMAL":125,"POSITION":124,"TANGENT":126,"TEXCOORD_0":127},"indices":128,"material":6,"mode":4}]},{"name":"Object_26","primitives":[{"attributes":{"NORMAL":130,"POSITION":129,"TANGENT":131,"TEXCOORD_0":132},"indices":133,"material":6,"mode":4}]},{"name":"Object_27","primitives":[{"attributes":{"NORMAL":135,"POSITION":134,"TANGENT":136,"TEXCOORD_0":137},"indices":138,"material":6,"mode":4}]},{"name":"Object_28","primitives":[{"attributes":{"NORMAL":140,"POSITION":139,"TANGENT":141,"TEXCOORD_0":142},"indices":143,"material":9,"mode":4}]},{"name":"Object_29","primitives":[{"attributes":{"NORMAL":145,"POSITION":144,"TANGENT":146,"TEXCOORD_0":147},"indices":148,"material":9,"mode":4}]},{"name":"Object_30","primitives":[{"attributes":{"NORMAL":150,"POSITION":149,"TANGENT":151,"TEXCOORD_0":152},"indices":153,"material":9,"mode":4}]},{"name":"Object_31","primitives":[{"attributes":{"NORMAL":155,"POSITION":154,"TANGENT":156,"TEXCOORD_0":157},"indices":158,"material":9,"mode":4}]},{"name":"Object_32","primitives":[{"attributes":{"NORMAL":160,"POSITION":159,"TANGENT":161,"TEXCOORD_0":162},"indices":163,"material":12,"mode":4}]},{"name":"Object_33","primitives":[{"attributes":{"NORMAL":165,"POSITION":164,"TANGENT":166,"TEXCOORD_0":167},"indices":168,"material":12,"mode":4}]},{"name":"Object_34","primitives":[{"attributes":{"NORMAL":170,"POSITION":169,"TANGENT":171,"TEXCOORD_0":172},"indices":173,"material":12,"mode":4}]}],"nodes":[{"children":[1],"matrix":[1,0,0,0,0,2.220446049250313e-16,-1,0,0,1,2.220446049250313e-16,0,0,0,0,1],"name":"Sketchfab_model"},{"children":[2,3,4,5,6,7,8,9,10,11,12,13,14,15,16,17,18,19,20,21,22,23,24,25,26,27,28,29,30,31,32,33,34,35,36],"name":"NOMADS.obj.cleaner.materialmerger.gles"},{"mesh":0,"name":"Object_2"},{"mesh":1,"name":"Object_3"},{"mesh":2,"name":"Object_4"},{"mesh":3,"name":"Object_5"},{"mesh":4,"name":"Object_6"},{"mesh":5,"name":"Object_7"},{"mesh":6,"name":"Object_8"},{"mesh":7,"name":"Object_9"},{"mesh":8,"name":"Object_10"},{"mesh":9,"name":"Object_11"},{"mesh":10,"name":"Object_12"},{"mesh":11,"name":"Object_13"},{"mesh":12,"name":"Object_14"},{"mesh":13,"name":"Object_15"},{"mesh":14,"name":"Object_16"},{"mesh":15,"name":"Object_17"},{"mesh":16,"name":"Object_18"},{"mesh":17,"name":"Object_19"},{"mesh":18,"name":"Object_20"},{"mesh":19,"name":"Object_21"},{"mesh":20,"name":"Object_22"},{"mesh":21,"name":"Object_23"},{"mesh":22,"name":"Object_24"},{"mesh":23,"name":"Object_25"},{"mesh":24,"name":"Object_26"},{"mesh":25,"name":"Object_27"},{"mesh":26,"name":"Object_28"},{"mesh":27,"name":"Object_29"},{"mesh":28,"name":"Object_30"},{"mesh":29,"name":"Object_31"},{"mesh":30,"name":"Object_32"},{"mesh":31,"name":"Object_33"},{"mesh":32,"name":"Object_34"},{"mesh":33,"name":"Object_35"},{"mesh":34,"name":"Object_36"}],"samplers":[{"magFilter":9729,"minFilter":9987,"wrapS":10497,"wrapT":10497}],"scene":0,"scenes":[{"name":"Sketchfab_Scene","nodes":[0]}],"textures":[{"sampler":0,"source":0},{"sampler":0,"source":1},{"sampler":0,"source":2},{"sampler":0,"source":3},{"sampler":0,"source":4},{"sampler":0,"source":5},{"sampler":0,"source":6},{"sampler":0,"source":7},{"sampler":0,"source":8},{"sampler":0,"source":9},{"sampler":0,"source":10},{"sampler":0,"source":11},{"sampler":0,"source":12},{"sampler":0,"source":13},{"sampler":0,"source":14},{"sampler":0,"source":15},{"sampler":0,"source":16},{"sampler":0,"source":17},{"sampler":0,"source":18},{"sampler":0,"source":19},{"sampler":0,"source":20},{"sampler":0,"source":21},{"sampler":0,"source":22},{"sampler":0,"source":23},{"sampler":0,"source":24},{"sampler":0,"source":25},{"sampler":0,"source":26},{"sampler":0,"source":27},{"sampler":0,"source":28},{"sampler":0,"source":29},{"sampler":0,"source":30},{"sampler":0,"source":31},{"sampler":0,"source":32}]}